 <svg width="24" height="24" viewBox="0 0 24 24" fill="none" xmlns="http://www.w3.org/2000/svg">
    <path d="M7.64661 2.00037C4.26961 2.00037 2.00061 4.36237 2.00061 7.88837V16.1024C2.00061 16.2534 2.02761 16.3884 2.03561 16.5344C2.04061 16.6194 2.03961 16.7044 2.04661 16.7894C2.05061 16.8274 2.06161 16.8624 2.06561 16.9004C2.09861 17.2144 2.14961 17.5144 2.22061 17.8054C2.23861 17.8834 2.25961 17.9584 2.28061 18.0344C2.36061 18.3164 2.45461 18.5854 2.56761 18.8424C2.60061 18.9144 2.63661 18.9834 2.67061 19.0544C2.79261 19.2994 2.92461 19.5344 3.07761 19.7524L3.22561 19.9444C3.38461 20.1504 3.55061 20.3474 3.73861 20.5264C3.79961 20.5844 3.86861 20.6344 3.93261 20.6894C4.12561 20.8554 4.32261 21.0144 4.53961 21.1504C4.61761 21.1994 4.70361 21.2354 4.78361 21.2794C5.00461 21.4014 5.22761 21.5204 5.47061 21.6124C5.57061 21.6504 5.68161 21.6704 5.78561 21.7034C6.02461 21.7774 6.26061 21.8544 6.51761 21.8984C6.58228 21.9097 6.64883 21.9177 6.71639 21.924L7.12661 21.9534C7.30061 21.9664 7.46561 22.0004 7.64661 22.0004H16.3626C16.7386 22.0004 17.0976 21.9624 17.4446 21.9054C17.4576 21.9034 17.4696 21.9014 17.4816 21.8994C18.8346 21.6664 19.9576 21.0134 20.7446 20.0284C20.7536 20.0284 20.7536 20.0184 20.7626 20.0094C21.5536 19.0134 22.0006 17.6744 22.0006 16.1024V7.88837C22.0006 4.36237 19.7296 2.00037 16.3626 2.00037H7.64661ZM7.64661 3.39537H16.3626C18.9396 3.39537 20.6046 5.16237 20.6046 7.88837V16.1024C20.6046 16.8674 20.4626 17.5504 20.2196 18.1414C20.1886 18.1044 18.2516 15.7424 18.2426 15.7344C17.5506 14.9444 16.2516 13.7664 14.5466 14.4794C14.1366 14.6494 13.7766 14.8884 13.4466 15.0984C12.8736 15.4814 12.5366 15.6614 12.1866 15.6314C12.0416 15.6114 11.9056 15.5684 11.7766 15.4884C11.2186 15.1444 9.64161 12.8444 9.54661 12.7194C8.45661 11.2994 6.77661 10.9194 5.37661 11.7594C5.28261 11.8154 4.89886 12.0786 4.48286 12.3751L4.16884 12.601C3.85681 12.8277 3.56286 13.0486 3.39561 13.1904V7.88837C3.39561 5.16237 5.06061 3.39537 7.64661 3.39537ZM15.5213 5.99997C14.8237 5.99997 14.1919 6.29335 13.7394 6.7614C13.2849 7.21305 13 7.83552 13 8.51492C13 9.86988 14.1337 11 15.4952 11C16.6919 11 17.7122 10.1256 17.9409 8.9936C17.9787 8.82375 18 8.64907 18 8.4686C18 7.104 16.8915 5.99997 15.5213 5.99997Z" fill="black" />
</svg>