<svg xmlns="http://www.w3.org/2000/svg" width="80" height="80" viewBox="0 0 80 80" fill="none">
  <path d="M25.4887 6.66785C14.232 6.66785 6.6687 14.5412 6.6687 26.2945V53.6746C6.6687 54.1779 6.7587 54.628 6.78537 55.1146C6.80203 55.398 6.7987 55.6813 6.82203 55.9646C6.83537 56.0913 6.87203 56.2079 6.88537 56.3346C6.99537 57.3813 7.16537 58.3813 7.40203 59.3513C7.46203 59.6113 7.53203 59.8613 7.60203 60.1146C7.8687 61.0546 8.18203 61.9513 8.5587 62.8079C8.6687 63.0479 8.7887 63.2779 8.90203 63.5146C9.3087 64.3313 9.7487 65.1146 10.2587 65.8413L10.752 66.4813C11.282 67.168 11.8354 67.8246 12.462 68.4213C12.6654 68.6146 12.8954 68.7813 13.1087 68.9646C13.752 69.5179 14.4087 70.048 15.132 70.5013C15.392 70.6646 15.6787 70.7846 15.9454 70.9313C16.682 71.3379 17.4254 71.7346 18.2354 72.0413C18.5687 72.1679 18.9387 72.2346 19.2854 72.3446C20.082 72.5913 20.8687 72.8479 21.7254 72.9946C21.9409 73.0323 22.1628 73.0589 22.388 73.0799L23.7554 73.1779C24.3354 73.2213 24.8854 73.3346 25.4887 73.3346H54.542C55.7953 73.3346 56.992 73.2079 58.1487 73.0179C58.192 73.0113 58.232 73.0046 58.272 72.998C62.782 72.2213 66.5253 70.0446 69.1487 66.7613C69.1787 66.7613 69.1787 66.7279 69.2087 66.6979C71.8453 63.3779 73.3353 58.9146 73.3353 53.6746V26.2945C73.3353 14.5412 65.7653 6.66785 54.542 6.66785H25.4887ZM25.4887 11.3178H54.542C63.132 11.3178 68.682 17.2078 68.682 26.2945V53.6746C68.682 56.2246 68.2087 58.5013 67.3987 60.4713C67.2953 60.3479 60.8387 52.4746 60.8087 52.4479C58.502 49.8146 54.172 45.8879 48.4887 48.2646C47.122 48.8313 45.922 49.6279 44.822 50.3279C42.912 51.6046 41.7887 52.2046 40.622 52.1046C40.1387 52.0379 39.6853 51.8946 39.2553 51.628C37.3953 50.4813 32.1387 42.8146 31.822 42.3979C28.1887 37.6646 22.5887 36.3979 17.922 39.1979C17.6087 39.3846 16.3295 40.2619 14.9429 41.2503L13.8961 42.0033C12.856 42.7589 11.8762 43.4953 11.3187 43.9679V26.2945C11.3187 17.2078 16.8687 11.3178 25.4887 11.3178ZM51.7377 19.9998C49.4123 19.9998 47.3063 20.9778 45.798 22.5379C44.283 24.0434 43.3333 26.1183 43.3333 28.383C43.3333 32.8995 47.1123 36.6666 51.6507 36.6666C55.6397 36.6666 59.0407 33.7519 59.803 29.9786C59.929 29.4124 60 28.8302 60 28.2286C60 23.6799 56.305 19.9998 51.7377 19.9998Z" fill="black"/>
</svg>